<?xml version="1.0" encoding="UTF-8"?>
<!-- Generated by Pixelmator Pro 3.6.14 -->
<svg width="1000" height="1000" viewBox="0 0 1000 1000" xmlns="http://www.w3.org/2000/svg">
    <g id="Group">
        <path id="Oval" fill="#082f49" fill-rule="evenodd" stroke="#bae6fd" stroke-width="40" d="M 978 500.5 C 978 236.23175 763.76825 22 499.5 22 C 235.23175 22 21 236.23175 21 500.5 C 21 764.76825 235.23175 979 499.5 979 C 763.76825 979 978 764.76825 978 500.5 Z"/>
        <g id="g1">
            <path id="Path" fill="#075985" fill-rule="evenodd" stroke="#bae6fd" stroke-width="20" d="M 464 449 L 533 428 C 533 428 550 561 550 561 C 550 561 559 598 559 598 C 559 598 481 610 481 610 L 474 547 L 464 449 Z"/>
            <path id="path1" fill="#075985" fill-rule="evenodd" stroke="#bae6fd" stroke-width="20" d="M 527.14679 325.646118 C 528.39209 352.191956 530.273926 389.815247 530.273926 389.815247 C 530.273926 389.815247 725.995422 378.975464 725.995422 360.889832 L 725.995422 360.889832 C 725.995422 341.015442 623.347961 324.904175 496.725922 324.904175 C 370.103851 324.904175 267.456421 341.015442 267.456421 360.889832 C 267.456421 378.975464 461.85321 390.197754 461.85321 390.197754 C 461.85321 390.197754 460.404633 329.777039 461.111237 325.646118 Z"/>
            <path id="path2" fill="#075985" fill-rule="evenodd" stroke="#bae6fd" stroke-width="20" d="M 727.47937 356.80896 C 757.741516 226.114746 623.347961 123.82959 496.725922 123.82959 C 370.103851 123.82959 229.191772 232.498047 266.714447 358.292908 C 268.093658 362.916687 261.643005 324.113525 494.5 324.16217 C 728.572205 324.211121 726.251709 362.111084 727.47937 356.80896 Z"/>
            <path id="path3" fill="#075985" fill-rule="evenodd" stroke="#bae6fd" stroke-width="20" d="M 464.079132 628.37085 C 464.079132 628.37085 462.588654 581.055603 465.56308 578.658752 C 467.049225 577.461182 470.827026 574.823486 474.466736 577.916748 C 482.999512 585.168579 485.728577 605.542114 491.532104 606.853699 C 495.501404 607.750732 504.751526 589.672363 514.533264 587.562378 C 527.086365 584.854675 539.058044 600.559814 551.631897 597.950012 C 556.624207 596.913818 564.413025 582.359009 567.213318 583.852539 C 572.437622 586.638916 574.633057 640.242432 574.633057 640.242432 L 575.375 698.116333 L 464.079132 695.890381 Z"/>
            <path id="path4" fill="#075985" fill-rule="evenodd" stroke="#bae6fd" stroke-width="20" d="M 464.079132 641.014709 C 464.079132 641.014709 430.17923 608.968811 407.689209 609.529053 C 373.770813 610.373901 357.10376 649.513428 326.072235 661.165527 C 298.881195 671.37561 279.537354 655.671631 247 660.849854 C 236.918945 662.454163 178.190598 665.689087 171 695.646606 C 169.806793 700.617798 283.03894 824.14209 501 821.971741 C 713.082947 819.859924 832.301086 702.870178 828 696.495361 C 811.746582 672.405518 752.657593 684.504028 745 676.931763 C 711.666565 643.969788 716.170349 626.797974 665 625.906738 C 642.222717 625.510071 627.062988 655.749939 604.311951 656.757568 C 593.827332 657.221924 573.891052 649.830688 573.891052 649.830688 C 573.891052 649.830688 574.514893 676.130615 563.503418 680.686768 C 547.826904 687.173096 499.671173 690.531006 476.692657 675.019287 C 464.388153 666.713135 464.079132 641.014709 464.079132 641.014709 Z"/>
            <path id="path5" fill="#075985" fill-rule="evenodd" stroke="#bae6fd" stroke-width="20" d="M 458.885315 397.617432 L 458.885315 325.646118 L 531.598633 325.646118 L 531.598633 397.617432 Z"/>
            <path id="Path-copy-2" fill="#075985" fill-rule="evenodd" stroke="#bae6fd" stroke-width="20" d="M 459.627289 385.101379 C 459.627289 385.101379 441.269043 437.36145 440.335999 444.459167 C 439.854004 448.125916 468.98465 458.39917 484.112396 457.072754 C 497.555298 455.894043 507.0466 440.657837 520.469055 439.265381 C 536.45929 437.606567 564.487366 457.724915 567.213318 451.136963 C 569.640625 445.270752 532.340576 384.359436 532.340576 384.359436 C 532.340576 384.359436 506.08606 377.560974 494.5 377.681702 C 482.342987 377.808289 459.627289 385.101379 459.627289 385.101379 Z"/>
        </g>
    </g>
</svg>
