<?xml version="1.0" encoding="UTF-8"?>
<svg width="1000" height="1000" viewBox="0 0 1000 1000" xmlns="http://www.w3.org/2000/svg" fill="#33c3f0" stroke="#33c3f0">
    <path fill-rule="evenodd" stroke-width="15" d="M 461 559 L 552 529 C 552 529 572 705 572 705 C 572 705 585 742 585 742 C 585 742 476 757 476 757 L 461 559 Z"/>
    <path fill-rule="evenodd" stroke-width="15" d="M 544 370 C 545.678345 405.777344 548.214661 456.484497 548.214661 456.484497 C 548.214661 456.484497 812 441.875122 812 417.5 L 812 417.5 C 812 390.714172 673.656006 369 503 369 C 332.343994 369 194 390.714172 194 417.5 C 194 441.875122 456 457 456 457 C 456 457 454.047668 375.567505 455 370 Z"/>
    <path fill-rule="evenodd" stroke-width="15" d="M 814 412 C 854.786072 235.855713 673.656006 98 503 98 C 332.343994 98 142.428482 244.458862 193 414 C 194.858841 420.23175 186.164932 367.934387 500 368 C 815.4729 368.065979 812.345398 419.145935 814 412 Z"/>
    <path fill-rule="evenodd" stroke-width="15" d="M 459 778 L 455 703 L 473 710 L 496 749 L 527 723 L 577 737 L 593 724 L 608 794 L 609 872 L 459 869 Z"/>
    <path fill-rule="evenodd" stroke-width="15" d="M 459 777 L 383 727 L 273 809 L 155 832 L 135 866 L 67 876 L 64 887 L 485 903 L 673 886 L 936 897 L 924 851 L 734 769 L 648 802 L 607 791 C 607 791 607.84082 832.764771 593 840 C 571.871826 850.300476 506.969513 855.632874 476 831 C 459.416473 817.80957 459 777 459 777 Z"/>
    <path fill-rule="evenodd" stroke-width="15" d="M 452 467 L 452 370 L 550 370 L 550 467 Z"/>
    <path fill-rule="evenodd" stroke-width="15" d="M 453 469 C 453 469 428.257507 539.43396 427 549 C 426.350372 553.941895 465.61145 567.78772 486 566 C 504.117798 564.411377 516.90979 543.876709 535 542 C 556.551025 539.764282 594.326111 566.878967 598 558 C 601.271423 550.09375 551 468 551 468 C 551 468 515.615234 458.837341 500 459 C 483.615295 459.170654 453 469 453 469 Z"/>
</svg>
